<?xml version="1.0" encoding="UTF-8" standalone="no"?>
<!-- Created with Inkscape (http://www.inkscape.org/) -->

<svg
   xmlns:dc="http://purl.org/dc/elements/1.1/"
   xmlns:cc="http://creativecommons.org/ns#"
   xmlns:rdf="http://www.w3.org/1999/02/22-rdf-syntax-ns#"
   xmlns:svg="http://www.w3.org/2000/svg"
   xmlns="http://www.w3.org/2000/svg"
   xmlns:sodipodi="http://sodipodi.sourceforge.net/DTD/sodipodi-0.dtd"
   xmlns:inkscape="http://www.inkscape.org/namespaces/inkscape"
   width="744.09448819"
   height="1052.3622047"
   id="svg2"
   version="1.1"
   inkscape:version="0.48.4 r9939"
   sodipodi:docname="icons.svg">
  <defs
     id="defs4" />
  <sodipodi:namedview
     id="base"
     pagecolor="#ffffff"
     bordercolor="#666666"
     borderopacity="1.0"
     inkscape:pageopacity="0.0"
     inkscape:pageshadow="2"
     inkscape:zoom="1.3015085"
     inkscape:cx="230.16129"
     inkscape:cy="810.36763"
     inkscape:document-units="px"
     inkscape:current-layer="layer1"
     showgrid="false"
     inkscape:window-width="1300"
     inkscape:window-height="830"
     inkscape:window-x="298"
     inkscape:window-y="36"
     inkscape:window-maximized="0" />
  <metadata
     id="metadata7">
    <rdf:RDF>
      <cc:Work
         rdf:about="">
        <dc:format>image/svg+xml</dc:format>
        <dc:type
           rdf:resource="http://purl.org/dc/dcmitype/StillImage" />
        <dc:title></dc:title>
      </cc:Work>
    </rdf:RDF>
  </metadata>
  <g
     inkscape:label="Layer 1"
     inkscape:groupmode="layer"
     id="layer1">
    <g
       transform="matrix(0.51551787,0,0,0.51551787,292.46292,177.25477)"
       style="fill:#ff0000"
       inkscape:export-ydpi="23.280001"
       inkscape:export-xdpi="23.280001"
       inkscape:export-filename="/home/mic/Sites/bedrijfsvideowerkt.nl/site/bloggrid/images/blogitem.png"
       id="g3973">
      <rect
         style="opacity:0;color:#000000;fill:#ff0000;fill-opacity:1;fill-rule:nonzero;stroke:none;stroke-width:1.7714138;marker:none;visibility:visible;display:inline;overflow:visible;enable-background:accumulate"
         id="rect3975"
         width="119.62205"
         height="119.62205"
         x="323.33398"
         y="367.90268" />
      <path
         inkscape:connector-curvature="0"
         style="color:#000000;fill:#808080;fill-opacity:1;fill-rule:nonzero;stroke:none;marker:none;visibility:visible;display:inline;overflow:visible;enable-background:accumulate"
         d="m 340.58328,374.22334 0,12.00641 6.11234,0 c 5.06405,0 9.22311,4.15906 9.22311,9.2231 0,5.06406 -4.15906,9.2231 -9.22311,9.2231 l -6.11234,0 0,11.67897 6.11234,0 c 5.06405,0 9.22311,4.15905 9.22311,9.2231 0,5.06405 -4.15906,9.22309 -9.22311,9.22309 l -6.11234,0 0,12.22472 6.11234,0 c 5.06405,0 9.22311,4.15905 9.22311,9.22309 0,5.06405 -4.15906,9.2231 -9.22311,9.2231 l -6.11234,0 0,15.88121 96.7607,0 0,-107.12989 -96.7607,0 z m 0,17.24557 0,7.96789 6.11234,0 c 2.24909,0 3.98394,-1.73486 3.98394,-3.98395 0,-2.24908 -1.73485,-3.98394 -3.98394,-3.98394 l -6.11234,0 z m 0,30.12516 0,7.96789 6.11234,0 c 2.24909,0 3.98394,-1.73486 3.98394,-3.98394 0,-2.24909 -1.73485,-3.98395 -3.98394,-3.98395 l -6.11234,0 z m 0,30.6709 0,7.96791 6.11234,0 c 2.24909,0 3.98394,-1.73487 3.98394,-3.98396 0,-2.24907 -1.73485,-3.98395 -3.98394,-3.98395 l -6.11234,0 z"
         id="rect3053" />
      <path
         style="color:#000000;fill:#ffffff;fill-opacity:1;stroke:none;stroke-width:6;marker:none;visibility:visible;display:inline;overflow:visible;enable-background:accumulate"
         d="m 394.15036,398.25245 c -11.34351,-0.25781 -14.80993,8.79028 -14.69377,16.87281 1.5e-4,0.0104 -1.4e-4,0.0193 0,0.0294 -7e-5,0.0104 9e-5,0.0195 0,0.0295 -0.0247,3.56268 0.68141,6.84282 1.73734,8.86335 0.021,0.048 0.0375,0.10008 0.0588,0.14739 0.007,0.0122 0.0235,0.0186 0.0295,0.0294 0.22477,0.49674 0.45511,0.95914 0.70671,1.35452 1.16678,1.83353 2.34712,3.34101 3.44522,4.79977 0.90115,2.32744 0.19465,4.6735 -5.35925,6.596 -10.21406,3.53563 -14.93904,7.06197 -15.13545,15.90107 l 23.32156,0 12.04358,0 23.32156,0 c -0.19641,-8.8391 -4.92139,-12.36544 -15.13547,-15.90107 -5.55387,-1.9225 -6.26036,-4.26856 -5.35924,-6.596 1.09812,-1.45876 2.27846,-2.96624 3.44524,-4.79977 0.25162,-0.39538 0.48193,-0.85778 0.70672,-1.35452 0.0302,-0.0547 0.0588,-0.11998 0.0883,-0.17667 1.05595,-2.02056 1.76189,-5.3007 1.73732,-8.86338 1.8e-4,-0.0104 -1.4e-4,-0.0195 0,-0.0294 -8e-5,-0.0104 9e-5,-0.0193 0,-0.0295 0.11614,-8.08252 -3.35025,-17.13059 -14.69374,-16.8728 -0.0498,9.1e-4 -0.0978,-0.002 -0.14723,0 -0.0396,-8.9e-4 -0.0781,9.1e-4 -0.11788,0 z"
         id="path3039-8"
         inkscape:connector-curvature="0" />
      <path
         style="color:#000000;fill:#808080;fill-opacity:1;fill-rule:nonzero;stroke:none;stroke-width:3;marker:none;visibility:visible;display:inline;overflow:visible;enable-background:accumulate"
         d="m 333.48859,391.46891 c -2.2491,0 -3.98394,1.73485 -3.98394,3.98395 0,2.2491 1.73484,3.98394 3.98394,3.98394 l 13.20705,0 c 2.2491,0 3.98394,-1.73484 3.98394,-3.98394 0,-2.2491 -1.73484,-3.98395 -3.98394,-3.98395 l -13.20705,0 z m 0,30.12516 c -2.2491,0 -3.98394,1.73485 -3.98394,3.98395 0,2.2491 1.73484,3.98395 3.98394,3.98395 l 13.20705,0 c 2.2491,0 3.98394,-1.73485 3.98394,-3.98395 0,-2.2491 -1.73484,-3.98395 -3.98394,-3.98395 l -13.20705,0 z m 0,30.67091 c -2.2491,0 -3.98394,1.73487 -3.98394,3.98395 0,2.24911 1.73484,3.98395 3.98394,3.98395 l 13.20705,0 c 2.2491,0 3.98394,-1.73484 3.98394,-3.98395 0,-2.24908 -1.73484,-3.98395 -3.98394,-3.98395 l -13.20705,0 z"
         id="rect3084"
         inkscape:connector-curvature="0" />
    </g>
    <g
       id="g3044"
       inkscape:export-filename="/home/mic/Sites/SaaSite/ss-express-clean/newsgrid/images/icon-overlay.png"
       inkscape:export-xdpi="13.19"
       inkscape:export-ydpi="13.19"
       style="fill:#ff0000"
       transform="translate(-251.50056,250.68509)">
      <rect
         y="366.32184"
         x="321.75314"
         height="122.78371"
         width="122.78371"
         id="rect3042"
         style="opacity:0;color:#000000;fill:#ff0000;fill-opacity:1;fill-rule:nonzero;stroke:none;stroke-width:1.7714138;marker:none;visibility:visible;display:inline;overflow:visible;enable-background:accumulate" />
      <path
         style="color:#000000;fill:#000000;stroke:none;stroke-width:6;marker:none;visibility:visible;display:inline;overflow:visible;enable-background:accumulate"
         d="m 382.21672,431.09541 c -16.09588,-0.0971 -29.48727,-8.66791 -36.63563,-19.99485 -9.0506,-14.34112 -7.54929,-13.15986 -7.54929,-13.15986 l -15.92688,10.86442 4.48686,-41.992 39.18711,14.10721 -17.64469,10.57268 c 0,0 3.9194,7.65394 9.07028,15.54208 7.6527,11.71967 24.9527,11.89148 24.9527,11.89148 z"
         id="path3872-3"
         inkscape:connector-curvature="0"
         sodipodi:nodetypes="cscccccscc" />
    </g>
  </g>
</svg>
